{
    "asset" : {
        "generator" : "Khronos glTF Blender I/O v1.7.33",
        "version" : "2.0"
    },
    "scene" : 0,
    "scenes" : [
        {
            "name" : "Scene",
            "nodes" : [
                0,
                1
            ]
        }
    ],
    "nodes" : [
        {
            "name" : "temp",
            "rotation" : [
                0.7071068286895752,
                0,
                0,
                0.7071067094802856
            ]
        },
        {
            "mesh" : 0,
            "name" : "temp.001",
            "rotation" : [
                0.7071068286895752,
                0,
                0,
                0.7071067094802856
            ]
        }
    ],
    "materials" : [
        {
            "alphaMode" : "BLEND",
            "doubleSided" : true,
            "name" : "model314:anisotropic2SG",
            "pbrMetallicRoughness" : {
                "baseColorFactor" : [
                    0.5590860247612,
                    0.2461535930633545,
                    1,
                    5
                ],
                "metallicFactor" : 0.9202713966369629,
                "roughnessFactor" : 0.9918350577354431
            }
        }
    ],
    "meshes" : [
        {
            "name" : "temp.001",
            "primitives" : [
                {
                    "attributes" : {
                        "POSITION" : 0,
                        "NORMAL" : 1,
                        "TEXCOORD_0" : 2
                    },
                    "indices" : 3,
                    "material" : 0
                }
            ]
        }
    ],
    "accessors" : [
        {
            "bufferView" : 0,
            "componentType" : 5126,
            "count" : 9203,
            "max" : [
                16.299253463745117,
                2,
                -0.305510014295578
            ],
            "min" : [
                -14.171507835388184,
                -0.004827000200748444,
                -13.6550931930542
            ],
            "type" : "VEC3"
        },
        {
            "bufferView" : 1,
            "componentType" : 5126,
            "count" : 9203,
            "type" : "VEC3"
        },
        {
            "bufferView" : 2,
            "componentType" : 5126,
            "count" : 9203,
            "type" : "VEC2"
        },
        {
            "bufferView" : 3,
            "componentType" : 5123,
            "count" : 14271,
            "type" : "SCALAR"
        }
    ],
    "bufferViews" : [
        {
            "buffer" : 0,
            "byteLength" : 110436,
            "byteOffset" : 0
        },
        {
            "buffer" : 0,
            "byteLength" : 110436,
            "byteOffset" : 110436
        },
        {
            "buffer" : 0,
            "byteLength" : 73624,
            "byteOffset" : 220872
        },
        {
            "buffer" : 0,
            "byteLength" : 28542,
            "byteOffset" : 294496
        }
    ],
    "buffers" : [
        {
            "byteLength" : 323040,
            "uri" : "data:application/octet-stream;base64,"
        }
    ]
}
