{"accessors":[{"bufferView":0,"componentType":5123,"count":5049,"max":[1161],"min":[0],"type":"SCALAR"},{"bufferView":1,"componentType":5126,"count":1162,"max":[11.334165573120117,13.6550931930542,1.4948370456695557],"min":[-8.779769897460938,7.276233196258545,0.4948360025882721],"type":"VEC3"},{"bufferView":2,"componentType":5126,"count":1162,"max":[1.0,1.0,1.0],"min":[-1.0,-1.0,-1.0],"type":"VEC3"},{"bufferView":3,"componentType":5126,"count":1162,"max":[1.0005435943603516,1.055172000080347],"min":[-0.0012169999536126852,-0.06230902671813965],"type":"VEC2"},{"bufferView":4,"componentType":5123,"count":3375,"max":[789],"min":[0],"type":"SCALAR"},{"bufferView":5,"componentType":5126,"count":790,"max":[-0.021542999893426895,13.554001808166504,1.9951729774475098],"min":[-14.171507835388184,0.305510014295578,-0.004827000200748444],"type":"VEC3"},{"bufferView":6,"componentType":5126,"count":790,"max":[1.0,1.0,1.0],"min":[-1.0,-1.0,-1.0],"type":"VEC3"},{"bufferView":7,"componentType":5126,"count":790,"max":[1.8872790336608887,1.1709370017051697],"min":[-0.0213019996881485,-0.2962930202484131],"type":"VEC2"},{"bufferView":8,"componentType":5123,"count":3375,"max":[789],"min":[0],"type":"SCALAR"},{"bufferView":9,"componentType":5126,"count":790,"max":[-0.021542999893426895,13.554001808166504,1.9951729774475098],"min":[-14.171507835388184,0.305510014295578,-0.004827000200748444],"type":"VEC3"},{"bufferView":10,"componentType":5126,"count":790,"max":[1.0,1.0,1.0],"min":[-1.0,-1.0,-1.0],"type":"VEC3"},{"bufferView":11,"componentType":5126,"count":790,"max":[1.8872790336608887,1.1709370017051697],"min":[-0.0213019996881485,-0.2962930202484131],"type":"VEC2"},{"bufferView":12,"componentType":5123,"count":3375,"max":[789],"min":[0],"type":"SCALAR"},{"bufferView":13,"componentType":5126,"count":790,"max":[-0.021542999893426895,13.554001808166504,1.9951729774475098],"min":[-14.171507835388184,0.305510014295578,-0.004827000200748444],"type":"VEC3"},{"bufferView":14,"componentType":5126,"count":790,"max":[1.0,1.0,1.0],"min":[-1.0,-1.0,-1.0],"type":"VEC3"},{"bufferView":15,"componentType":5126,"count":790,"max":[1.8872790336608887,1.1709370017051697],"min":[-0.0213019996881485,-0.2962930202484131],"type":"VEC2"}],"asset":{"copyright":null,"generator":"Soft8Soft Verge3D for Maya plug-in","version":"2.0"},"bufferViews":[{"buffer":0,"byteLength":10098,"byteOffset":0,"target":34963},{"buffer":0,"byteLength":13944,"byteOffset":10100,"target":34962},{"buffer":0,"byteLength":13944,"byteOffset":24044,"target":34962},{"buffer":0,"byteLength":9296,"byteOffset":37988,"target":34962},{"buffer":0,"byteLength":6750,"byteOffset":47284,"target":34963},{"buffer":0,"byteLength":9480,"byteOffset":54036,"target":34962},{"buffer":0,"byteLength":9480,"byteOffset":63516,"target":34962},{"buffer":0,"byteLength":6320,"byteOffset":72996,"target":34962},{"buffer":0,"byteLength":6750,"byteOffset":79316,"target":34963},{"buffer":0,"byteLength":9480,"byteOffset":86068,"target":34962},{"buffer":0,"byteLength":9480,"byteOffset":95548,"target":34962},{"buffer":0,"byteLength":6320,"byteOffset":105028,"target":34962},{"buffer":0,"byteLength":6750,"byteOffset":111348,"target":34963},{"buffer":0,"byteLength":9480,"byteOffset":118100,"target":34962},{"buffer":0,"byteLength":9480,"byteOffset":127580,"target":34962},{"buffer":0,"byteLength":6320,"byteOffset":137060,"target":34962}],"buffers":[{"byteLength":143380,"uri":"dmodek2l.bin"}],"cameras":[{"extensions":{"S8S_v3d_camera_data":{"controls":"ORBIT","enablePan":true,"moveSpeed":1.0,"orbitMaxDistance":1000.0,"orbitMaxPolarAngle":3.141592653589793,"orbitMaxZoom":100.0,"orbitMinDistance":0.0,"orbitMinPolarAngle":0.0,"orbitMinZoom":0.009999999776482582,"orbitTarget":[12.243829185803818,5.662614996638735,0.9072258148643186],"rotateSpeed":1.0,"viewportFitInitialAspect":1.5,"viewportFitType":"HORIZONTAL"}},"name":"perspShape","perspective":{"aspectRatio":1.5,"yfov":0.6605947096585075,"zfar":10000.0,"znear":0.1},"type":"perspective"}],"extensions":{"S8S_v3d_data":{"lights":[{"color":[1.0,0.0,1.0],"decay":0,"intensity":10.0,"name":"pointLightShape1","profile":"maya","shadow":{"bias":-0.0010000000474974513,"cameraFar":23.307635628770992,"cameraFov":1.5707963267948966,"cameraNear":0.01,"cameraOrthoBottom":-1,"cameraOrthoLeft":-1,"cameraOrthoRight":1,"cameraOrthoTop":1,"enabled":false,"expBias":4.0,"mapSize":512,"radius":0,"slopeScaledBias":2.5},"type":"point"},{"color":[1.0,1.0,1.0],"intensity":10.0,"name":"directionalLightShape2","profile":"maya","shadow":{"bias":-0.0010000000474974513,"cameraFar":-5.744366309107811,"cameraFov":0,"cameraNear":-7.687837350051267,"cameraOrthoBottom":-9.194342637938997,"cameraOrthoLeft":-14.446396374701113,"cameraOrthoRight":16.514951361062458,"cameraOrthoTop":4.155240540819625,"enabled":false,"expBias":4.0,"mapSize":512,"radius":0,"slopeScaledBias":2.5},"type":"directional"}]}},"extensionsUsed":["S8S_v3d_material_data","S8S_v3d_data","S8S_v3d_camera_data","S8S_v3d_node_data","S8S_v3d_scene_data"],"materials":[{"alphaMode":"BLEND","extensions":{"S8S_v3d_material_data":{"gtaoVisible":true,"nodeGraph":{"edges":[{"fromNode":1,"fromOutput":0,"toInput":0,"toNode":0}],"nodes":[{"inputs":[[0.23999999463558197,0.23999999463558197,0.23999999463558197,1],[0,0,0,0],[0,0,0]],"is_active_output":true,"name":"aiStandardSurface2SG","outputs":[],"type":"SHADING_ENGINE_MY"},{"inputs":[0.0,[0.5400000214576721,0.5400000214576721,0.5400000214576721],0.0,0.0,1.0,[1.0,0.9370999932289124,0.6862000226974487],0.13600000739097595,0.7919999957084656,[0.8251748085021973,0.8251748085021973,0.8251748085021973],0.08999999612569809,[0.7062937021255493,0.7062937021255493,0.7062937021255493],0.0,0.8640000224113464,[1.0,1.0,1.0],[0.6083915829658508,0.6083915829658508,0.6083915829658508],0.9039999842643738,[0.8471337556838989,0.8471337556838989,0.8471337556838989],2.0249999579391442e-05,0.0,[1.0,0.8741998672485352,0.3724997639656067],0.0560000017285347,0.11999999731779099,[1.0,1.0,1.0],[1.0,1.0,1.0],[1.0,1.0,1.0],[0.0,0.0,0.0],2.658536672592163],"name":"aiStandardSurface2","outputs":[[0.23999999463558197,0.23999999463558197,0.23999999463558197,0],[0.0,0.0,0.0]],"thinWalled":false,"type":"STANDARD_SURFACE_AR"}]},"profile":"maya"}},"name":"aiStandardSurface2"},{"extensions":{"S8S_v3d_material_data":{"nodeGraph":{"edges":[{"fromNode":0,"fromOutput":0,"toInput":0,"toNode":1}],"nodes":[{"inputs":[[0.011127216240388132,0.010783962325530883,0.010783962325530883],[0,0,0],[0,0,0],[0,0,0],[0,0,0],[0,0,0]],"name":"aiRaySwitchColor","outputs":[[0,0,0],0],"type":"RAY_SWITCH_AR"},{"inputs":[[0,0,0],1],"is_active_output":true,"name":"aiSkyDomeLightShapeColor","outputs":[],"type":"SKYDOME_LIGHT_AR"}]},"profile":"maya"}},"name":"Verge3D_Environment"}],"meshes":[{"name":"model314:WShape","primitives":[{"attributes":{"NORMAL":2,"POSITION":1,"TEXCOORD_0":3},"indices":0,"material":0,"mode":4}]},{"name":"model314:pasted__E1group2Shape","primitives":[{"attributes":{"NORMAL":6,"POSITION":5,"TEXCOORD_0":7},"indices":4,"material":0,"mode":4}]},{"name":"pasted__E1group2Shape","primitives":[{"attributes":{"NORMAL":10,"POSITION":9,"TEXCOORD_0":11},"indices":8,"material":0,"mode":4}]},{"name":"pasted__E1group3Shape","primitives":[{"attributes":{"NORMAL":14,"POSITION":13,"TEXCOORD_0":15},"indices":12,"material":0,"mode":4}]}],"nodes":[{"extensions":{"S8S_v3d_node_data":{"frustumCulling":true,"hidden":false,"hidpiCompositing":false,"renderOrder":0,"useCastShadows":true,"useShadows":true}},"mesh":0,"name":"model314:W","rotation":[0.0,0.0,0.0,1.0],"scale":[1.0,1.0,1.0],"translation":[-0.27488853931292934,0.0,0.0]},{"extensions":{"S8S_v3d_node_data":{"frustumCulling":true,"hidden":false,"hidpiCompositing":false,"renderOrder":0,"useCastShadows":true,"useShadows":true}},"mesh":1,"name":"model314:pasted__E1group2","rotation":[0.0,0.0,0.0,1.0],"scale":[1.0,1.0,1.0],"translation":[-0.27488853931292934,0.0,0.0]},{"extensions":{"S8S_v3d_node_data":{"groupNames":["defaultLightSet"],"hidden":false,"hidpiCompositing":false,"light":0}},"name":"pointLight1","rotation":[0.0,0.0,0.0,1.0],"scale":[352.2479906143449,38177.78478747369,108.38325783175934],"translation":[7.224916145084316,7.359251127804239,4.87794370935651]},{"extensions":{"S8S_v3d_node_data":{"groupNames":["defaultLightSet"],"hidden":false,"hidpiCompositing":false,"light":1}},"name":"directionalLight2","rotation":[0.0,0.0,0.0,1.0],"scale":[1.0,1.0,1.0],"translation":[0.0,9.499852652234575,-5.692664372603757]},{"extensions":{"S8S_v3d_node_data":{"frustumCulling":true,"hidden":false,"hidpiCompositing":false,"renderOrder":0,"useCastShadows":true,"useShadows":true}},"mesh":2,"name":"pasted__E1group2","rotation":[0.0,0.0,0.0,1.0],"scale":[1.0,1.0,1.0],"translation":[-0.27488853931292934,0.0,0.0]},{"extensions":{"S8S_v3d_node_data":{"frustumCulling":true,"hidden":false,"hidpiCompositing":false,"renderOrder":0,"useCastShadows":true,"useShadows":true}},"mesh":3,"name":"pasted__E1group3","rotation":[0.0,1.0,0.0,6.123233995736766e-17],"scale":[1.0,1.0,1.0],"translation":[2.3434435256742745,0.0,1.9900000000000004]},{"extensions":{"S8S_v3d_node_data":{"groupNames":["defaultLightSet"],"hidden":false,"hidpiCompositing":false}},"name":"volumeLight1","rotation":[0.0,0.0,0.0,1.0],"scale":[1.0,1.0,1.0],"translation":[0.0,9.370112006915484,6.896822373206412]},{"camera":0,"extensions":{"S8S_v3d_node_data":{"hidden":false,"hidpiCompositing":false}},"name":"persp","rotation":[0.0005785663046759092,0.9806103838711836,0.0028954415069186367,-0.1959452901284466],"scale":[1.0,1.0,1.0],"translation":[-13.592062472674066,6.059633224109696,-61.15951747934105]}],"scene":0,"scenes":[{"extensions":{"S8S_v3d_scene_data":{"aaMethod":"AUTO","iblEnvironmentMode":"PMREM","physicallyCorrectLights":true,"shadowMap":{"esmDistanceScale":2.5,"renderReverseSided":false,"renderSingleSided":true,"type":"PCFPOISSON"},"unitsScaleFactor":1.0,"useHDR":true,"worldMaterial":1}},"extras":{"animFrameRate":24.0,"coordSystem":"Y_UP_RIGHT"},"name":"Scene","nodes":[0,1,2,3,4,5,6,7]}]}