{"accessors":[{"bufferView":0,"componentType":5123,"count":5016,"max":[1152],"min":[0],"type":"SCALAR"},{"bufferView":1,"componentType":5126,"count":1153,"max":[11.334165573120117,13.6550931930542,1.4948370456695557],"min":[-8.779769897460938,7.276233196258545,0.4948360025882721],"type":"VEC3"},{"bufferView":2,"componentType":5126,"count":1153,"max":[1.0,1.0,1.0],"min":[-1.0,-1.0,-1.0],"type":"VEC3"},{"bufferView":3,"componentType":5126,"count":1153,"max":[1.0,1.055172000080347],"min":[-0.0012169999536126852,-0.06230902671813965],"type":"VEC2"},{"bufferView":4,"componentType":5123,"count":5793,"max":[1340],"min":[0],"type":"SCALAR"},{"bufferView":5,"componentType":5126,"count":1341,"max":[16.299253463745117,13.564274787902832,2.0],"min":[1.9960949420928955,0.31578299403190613,0.0],"type":"VEC3"},{"bufferView":6,"componentType":5126,"count":1341,"max":[1.0,1.0,1.0],"min":[-1.0,-0.9981193542480469,-1.0],"type":"VEC3"},{"bufferView":7,"componentType":5126,"count":1341,"max":[1.9025726318359375,1.1759508401155472],"min":[-0.016292735934257507,-0.2962930202484131],"type":"VEC2"},{"bufferView":8,"componentType":5123,"count":3447,"max":[799],"min":[0],"type":"SCALAR"},{"bufferView":9,"componentType":5126,"count":800,"max":[-0.021542999893426895,13.554001808166504,1.9951729774475098],"min":[-14.171507835388184,0.305510014295578,-0.004827000200748444],"type":"VEC3"},{"bufferView":10,"componentType":5126,"count":800,"max":[1.0,1.0,1.0],"min":[-1.0,-1.0,-1.0],"type":"VEC3"},{"bufferView":11,"componentType":5126,"count":800,"max":[1.8872790336608887,1.1709370017051697],"min":[-0.0213019996881485,-0.2962930202484131],"type":"VEC2"}],"asset":{"copyright":null,"generator":"Soft8Soft Verge3D for Maya plug-in","version":"2.0"},"bufferViews":[{"buffer":0,"byteLength":10032,"byteOffset":0,"target":34963},{"buffer":0,"byteLength":13836,"byteOffset":10032,"target":34962},{"buffer":0,"byteLength":13836,"byteOffset":23868,"target":34962},{"buffer":0,"byteLength":9224,"byteOffset":37704,"target":34962},{"buffer":0,"byteLength":11586,"byteOffset":46928,"target":34963},{"buffer":0,"byteLength":16092,"byteOffset":58516,"target":34962},{"buffer":0,"byteLength":16092,"byteOffset":74608,"target":34962},{"buffer":0,"byteLength":10728,"byteOffset":90700,"target":34962},{"buffer":0,"byteLength":6894,"byteOffset":101428,"target":34963},{"buffer":0,"byteLength":9600,"byteOffset":108324,"target":34962},{"buffer":0,"byteLength":9600,"byteOffset":117924,"target":34962},{"buffer":0,"byteLength":6400,"byteOffset":127524,"target":34962}],"buffers":[{"byteLength":133924,"uri":"dtest.bin"}],"cameras":[{"extensions":{"S8S_v3d_camera_data":{"controls":"ORBIT","enablePan":true,"moveSpeed":1.0,"orbitMaxDistance":1000.0,"orbitMaxPolarAngle":3.141592653589793,"orbitMaxZoom":100.0,"orbitMinDistance":0.0,"orbitMinPolarAngle":0.0,"orbitMinZoom":0.009999999776482582,"orbitTarget":[12.243829185798784,5.662614996645189,0.9072258147422758],"rotateSpeed":1.0,"viewportFitInitialAspect":1.5,"viewportFitType":"HORIZONTAL"}},"name":"perspShape","perspective":{"aspectRatio":1.5,"yfov":0.6605947096585075,"zfar":10000.0,"znear":0.1},"type":"perspective"}],"extensions":{"S8S_v3d_data":{"lights":[{"color":[1.0,1.0,1.0],"decay":0,"intensity":10.0,"name":"pointLightShape1","profile":"maya","shadow":{"bias":-0.0010000000474974513,"cameraFar":22.617741329508146,"cameraFov":1.5707963267948966,"cameraNear":0.01,"cameraOrthoBottom":-1,"cameraOrthoLeft":-1,"cameraOrthoRight":1,"cameraOrthoTop":1,"enabled":false,"expBias":4.0,"mapSize":512,"radius":0,"slopeScaledBias":2.5},"type":"point"},{"color":[1.0,1.0,1.0],"intensity":1.0,"name":"directionalLightShape1","profile":"maya","shadow":{"bias":-0.0010000000474974513,"cameraFar":0.0048752702027559285,"cameraFov":0,"cameraNear":-2.0,"cameraOrthoBottom":0.305510014295578,"cameraOrthoLeft":-14.171507835388184,"cameraOrthoRight":16.299253463745117,"cameraOrthoTop":13.6550931930542,"enabled":false,"expBias":4.0,"mapSize":512,"radius":0,"slopeScaledBias":2.5},"type":"directional"},{"color":[1.0,1.0,1.0],"intensity":10.0,"name":"directionalLightShape2","profile":"maya","shadow":{"bias":-0.0010000000474974513,"cameraFar":-5.744715746127039,"cameraFov":0,"cameraNear":-7.692664372603757,"cameraOrthoBottom":-9.194342637938997,"cameraOrthoLeft":-14.171507835388184,"cameraOrthoRight":16.299253463745117,"cameraOrthoTop":4.155240540819625,"enabled":false,"expBias":4.0,"mapSize":512,"radius":0,"slopeScaledBias":2.5},"type":"directional"},{"color":[1.0,1.0,1.0],"intensity":314.1592653589793,"name":"ambientLightShape1","profile":"maya","type":"ambient"}]}},"extensionsUsed":["S8S_v3d_material_data","S8S_v3d_data","S8S_v3d_camera_data","S8S_v3d_node_data","S8S_v3d_scene_data"],"materials":[{"alphaMode":"BLEND","extensions":{"S8S_v3d_material_data":{"gtaoVisible":true,"nodeGraph":{"edges":[{"fromNode":1,"fromOutput":0,"toInput":0,"toNode":0}],"nodes":[{"inputs":[[0.023076767101883888,0.0,0.05147998780012131,1],[0,0,0,0],[0,0,0]],"is_active_output":true,"name":"model314:anisotropic2SG","outputs":[],"type":"SHADING_ENGINE_MY"},{"inputs":[[1.0,1.0,1.0],[0.38999998569488525,0.38999998569488525,0.38999998569488525],[0.0,0.0,0.0],1.0,0.800000011920929,[1.0,1.0,1.0],0.5,[0.0,0.0,0.0],2.059999942779541,[1.0,1.0,1.0],0.0,[0.940828800201416,1.0,0.8680000305175781]],"name":"model314:anisotropic2SG1","outputs":[[0.023076767101883888,0.0,0.05147998780012131,0]],"type":"PHONG_MY"}]},"profile":"maya"}},"name":"model314:anisotropic2SG1"},{"alphaMode":"BLEND","extensions":{"S8S_v3d_material_data":{"gtaoVisible":true,"nodeGraph":{"edges":[{"fromNode":1,"fromOutput":0,"toInput":0,"toNode":0}],"nodes":[{"inputs":[[0.023076767101883888,0.0,0.05147998780012131,1],[0,0,0,0],[0,0,0]],"is_active_output":true,"name":"model314:pasted__anisotropic2SG","outputs":[],"type":"SHADING_ENGINE_MY"},{"inputs":[[1.0,1.0,1.0],[0.38999998569488525,0.38999998569488525,0.38999998569488525],[0.0,0.0,0.0],1.0,0.800000011920929,[1.0,1.0,1.0],0.5,[0.0,0.0,0.0],2.059999942779541,[1.0,1.0,1.0],0.0,[0.940828800201416,1.0,0.8680000305175781]],"name":"model314:pasted__anisotropic2SG1","outputs":[[0.023076767101883888,0.0,0.05147998780012131,0]],"type":"PHONG_MY"}]},"profile":"maya"}},"name":"model314:pasted__anisotropic2SG1"},{"extensions":{"S8S_v3d_material_data":{"nodeGraph":{"edges":[{"fromNode":0,"fromOutput":0,"toInput":0,"toNode":1}],"nodes":[{"inputs":[[0.011127216240388132,0.010783962325530883,0.010783962325530883],[0,0,0],[0,0,0],[0,0,0],[0,0,0],[0,0,0]],"name":"aiRaySwitchColor","outputs":[[0,0,0],0],"type":"RAY_SWITCH_AR"},{"inputs":[[0,0,0],1],"is_active_output":true,"name":"aiSkyDomeLightShapeColor","outputs":[],"type":"SKYDOME_LIGHT_AR"}]},"profile":"maya"}},"name":"Verge3D_Environment"}],"meshes":[{"name":"model314:WShape","primitives":[{"attributes":{"NORMAL":2,"POSITION":1,"TEXCOORD_0":3},"indices":0,"material":0,"mode":4}]},{"name":"model314:E2Shape","primitives":[{"attributes":{"NORMAL":6,"POSITION":5,"TEXCOORD_0":7},"indices":4,"material":0,"mode":4}]},{"name":"model314:pasted__E1group2Shape","primitives":[{"attributes":{"NORMAL":10,"POSITION":9,"TEXCOORD_0":11},"indices":8,"material":1,"mode":4}]}],"nodes":[{"extensions":{"S8S_v3d_node_data":{"frustumCulling":true,"hidden":false,"hidpiCompositing":false,"renderOrder":0,"useCastShadows":true,"useShadows":true}},"mesh":0,"name":"model314:W","rotation":[0.0,0.0,0.0,1.0],"scale":[1.0,1.0,1.0],"translation":[0.0,0.0,0.0]},{"extensions":{"S8S_v3d_node_data":{"frustumCulling":true,"hidden":false,"hidpiCompositing":false,"renderOrder":0,"useCastShadows":true,"useShadows":true}},"mesh":1,"name":"model314:E2","rotation":[0.0,0.0,0.0,1.0],"scale":[1.0,1.0,1.0],"translation":[0.0,0.0,0.0]},{"extensions":{"S8S_v3d_node_data":{"frustumCulling":true,"hidden":false,"hidpiCompositing":false,"renderOrder":0,"useCastShadows":true,"useShadows":true}},"mesh":2,"name":"model314:pasted__E1group2","rotation":[0.0,0.0,0.0,1.0],"scale":[1.0,1.0,1.0],"translation":[0.0,0.0,0.0]},{"extensions":{"S8S_v3d_node_data":{"groupNames":["defaultLightSet"],"hidden":false,"hidpiCompositing":false,"light":0}},"name":"pointLight1","rotation":[0.0,0.0,0.0,1.0],"scale":[352.2479906143449,38177.78478747369,108.38325783175934],"translation":[7.224916145084316,7.359251127804239,0.0]},{"extensions":{"S8S_v3d_node_data":{"groupNames":["defaultLightSet"],"hidden":false,"hidpiCompositing":false,"light":1}},"name":"directionalLight1","rotation":[0.0,0.0,0.0,1.0],"scale":[1.0,1.0,1.0],"translation":[0.0,0.0,0.0]},{"extensions":{"S8S_v3d_node_data":{"groupNames":["defaultLightSet"],"hidden":false,"hidpiCompositing":false,"light":2}},"name":"directionalLight2","rotation":[0.0,0.0,0.0,1.0],"scale":[1.0,1.0,1.0],"translation":[0.0,9.499852652234575,-5.692664372603757]},{"extensions":{"S8S_v3d_node_data":{"groupNames":["defaultLightSet"],"hidden":false,"hidpiCompositing":false,"light":3}},"name":"ambientLight1","rotation":[0.0,0.0,0.0,1.0],"scale":[1.0,1.0,1.0],"translation":[0.0,0.0,0.0]},{"camera":0,"extensions":{"S8S_v3d_node_data":{"hidden":false,"hidpiCompositing":false}},"name":"persp","rotation":[0.09074860568349125,-0.09544660255879694,0.00873809686685478,0.9912508674849323],"scale":[0.9999999999999999,1.0,1.0],"translation":[-0.2839131338824217,-6.460539692120003,65.35687287396232]}],"scene":0,"scenes":[{"extensions":{"S8S_v3d_scene_data":{"aaMethod":"AUTO","iblEnvironmentMode":"PMREM","physicallyCorrectLights":true,"shadowMap":{"esmDistanceScale":2.5,"renderReverseSided":false,"renderSingleSided":true,"type":"PCFPOISSON"},"unitsScaleFactor":1.0,"useHDR":true,"worldMaterial":2}},"extras":{"animFrameRate":24.0,"coordSystem":"Y_UP_RIGHT"},"name":"Scene","nodes":[0,1,2,3,4,5,6,7]}]}