{
    "asset" : {
        "generator" : "Khronos glTF Blender I/O v1.7.33",
        "version" : "2.0"
    },
    "scene" : 0,
    "scenes" : [
        {
            "name" : "Scene",
            "nodes" : [
                0,
                1
            ]
        }
    ],
    "nodes" : [
        {
            "name" : "temp",
            "rotation" : [
                0.7071068286895752,
                0,
                0,
                0.7071067094802856
            ]
        },
        {
            "mesh" : 0,
            "name" : "temp.001",
            "rotation" : [
                0.7071068286895752,
                0,
                0,
                0.7071067094802856
            ]
        }
    ],
    "materials" : [
        {
            "alphaMode" : "BLEND",
            "doubleSided" : true,
            "name" : "model314:anisotropic2SG",
            "pbrMetallicRoughness" : {
                "metallicFactor" : 0.38999998569488525,
                "roughnessFactor" : 0.9918350577354431
            }
        },
        {
            "alphaMode" : "BLEND",
            "doubleSided" : true,
            "name" : "model314:pasted__anisotropic2SG",
            "pbrMetallicRoughness" : {
                "metallicFactor" : 0.38999998569488525,
                "roughnessFactor" : 0.9918350577354431
            }
        }
    ],
    "meshes" : [
        {
            "name" : "temp.001",
            "primitives" : [
                {
                    "attributes" : {
                        "POSITION" : 0,
                        "NORMAL" : 1,
                        "TEXCOORD_0" : 2
                    },
                    "indices" : 3,
                    "material" : 0
                },
                {
                    "attributes" : {
                        "POSITION" : 4,
                        "NORMAL" : 5,
                        "TEXCOORD_0" : 6
                    },
                    "indices" : 7,
                    "material" : 1
                }
            ]
        }
    ],
    "accessors" : [
        {
            "bufferView" : 0,
            "componentType" : 5126,
            "count" : 6575,
            "max" : [
                16.299253463745117,
                2,
                -0.31578299403190613
            ],
            "min" : [
                -8.779769897460938,
                0,
                -13.6550931930542
            ],
            "type" : "VEC3"
        },
        {
            "bufferView" : 1,
            "componentType" : 5126,
            "count" : 6575,
            "type" : "VEC3"
        },
        {
            "bufferView" : 2,
            "componentType" : 5126,
            "count" : 6575,
            "type" : "VEC2"
        },
        {
            "bufferView" : 3,
            "componentType" : 5123,
            "count" : 10824,
            "type" : "SCALAR"
        },
        {
            "bufferView" : 4,
            "componentType" : 5126,
            "count" : 2019,
            "max" : [
                -0.021542999893426895,
                1.9951729774475098,
                -0.305510014295578
            ],
            "min" : [
                -14.171507835388184,
                -0.004827000200748444,
                -13.554001808166504
            ],
            "type" : "VEC3"
        },
        {
            "bufferView" : 5,
            "componentType" : 5126,
            "count" : 2019,
            "type" : "VEC3"
        },
        {
            "bufferView" : 6,
            "componentType" : 5126,
            "count" : 2019,
            "type" : "VEC2"
        },
        {
            "bufferView" : 7,
            "componentType" : 5123,
            "count" : 3447,
            "type" : "SCALAR"
        }
    ],
    "bufferViews" : [
        {
            "buffer" : 0,
            "byteLength" : 78900,
            "byteOffset" : 0
        },
        {
            "buffer" : 0,
            "byteLength" : 78900,
            "byteOffset" : 78900
        },
        {
            "buffer" : 0,
            "byteLength" : 52600,
            "byteOffset" : 157800
        },
        {
            "buffer" : 0,
            "byteLength" : 21648,
            "byteOffset" : 210400
        },
        {
            "buffer" : 0,
            "byteLength" : 24228,
            "byteOffset" : 232048
        },
        {
            "buffer" : 0,
            "byteLength" : 24228,
            "byteOffset" : 256276
        },
        {
            "buffer" : 0,
            "byteLength" : 16152,
            "byteOffset" : 280504
        },
        {
            "buffer" : 0,
            "byteLength" : 6894,
            "byteOffset" : 296656
        }
    ],
    "buffers" : [
        {
            "byteLength" : 303552,
            "uri" : "data:application/octet-stream;base64,"
        }
    ]
}
